<?xml version="1.0" encoding="UTF-8" standalone="no"?>
<!-- Created with Inkscape (http://www.inkscape.org/) -->

<svg
   width="100mm"
   height="100mm"
   viewBox="0 0 100 100"
   version="1.1"
   id="svg5"
   inkscape:version="1.2.1 (9c6d41e410, 2022-07-14)"
   sodipodi:docname="move.svg"
   xml:space="preserve"
   xmlns:inkscape="http://www.inkscape.org/namespaces/inkscape"
   xmlns:sodipodi="http://sodipodi.sourceforge.net/DTD/sodipodi-0.dtd"
   xmlns="http://www.w3.org/2000/svg"
   xmlns:svg="http://www.w3.org/2000/svg"><sodipodi:namedview
     id="namedview7"
     pagecolor="#ffffff"
     bordercolor="#666666"
     borderopacity="1.0"
     inkscape:showpageshadow="2"
     inkscape:pageopacity="0.0"
     inkscape:pagecheckerboard="0"
     inkscape:deskcolor="#d1d1d1"
     inkscape:document-units="mm"
     showgrid="false"
     inkscape:zoom="0.84096521"
     inkscape:cx="83.832244"
     inkscape:cy="249.11851"
     inkscape:window-width="1920"
     inkscape:window-height="1010"
     inkscape:window-x="1913"
     inkscape:window-y="-6"
     inkscape:window-maximized="1"
     inkscape:current-layer="layer1" /><defs
     id="defs2" /><g
     inkscape:label="Layer 1"
     inkscape:groupmode="layer"
     id="layer1"><path
       style="fill:#000000;stroke-width:0.17589"
       d="M 48.944496,94.826441 C 48.414165,94.61931 37.415185,83.704349 37.056187,83.028956 c -0.301279,-0.56683 -0.32849,-1.597101 -0.05626,-2.130246 0.284596,-0.557322 1.923163,-2.215155 2.478413,-2.507544 0.566699,-0.298413 1.771332,-0.327288 2.307679,-0.0553 0.21138,0.107184 1.354263,1.154384 2.539733,2.327098 l 2.155411,2.132199 v -7.54645 c 0,-7.313003 0.01146,-7.570092 0.370452,-8.31115 0.53106,-1.096265 1.319237,-1.456262 3.188308,-1.456262 1.754427,0 2.49882,0.323084 3.080527,1.33702 0.389817,0.679474 0.393021,0.746043 0.395892,8.237262 l 0.0026,7.552247 2.331362,-2.301348 c 2.059196,-2.032694 2.418701,-2.31576 3.079505,-2.424774 1.044122,-0.172243 2.007826,0.332757 3.184668,1.668862 0.988415,1.122169 1.256179,1.903985 1.00405,2.931542 -0.153563,0.625825 -11.370877,11.938859 -12.189222,12.293243 -0.648666,0.280897 -1.350468,0.298969 -1.985107,0.05109 z M 17.009247,62.99383 C 16.815702,62.888784 14.102201,60.260353 10.97925,57.152868 4.779948,50.984279 4.7451689,50.93834 5.1390035,49.43692 5.3102918,48.783917 6.0713958,47.953901 11.17213,42.857553 c 6.287147,-6.281725 6.241871,-6.247001 7.770808,-5.960368 0.737661,0.13828 2.551357,1.744232 2.973243,2.632676 0.329936,0.6948 0.36605,1.547873 0.08866,2.094227 -0.107239,0.211233 -1.1948,1.392879 -2.416793,2.625882 l -2.221817,2.241809 h 7.526414 c 7.195945,0 7.556896,0.01552 8.220838,0.354035 1.020628,0.520316 1.40297,1.385016 1.40297,3.172924 0,1.649671 -0.263355,2.36246 -1.106392,2.994555 l -0.565148,0.42373 -7.788852,0.08789 -7.788852,0.08789 2.13268,2.109945 c 2.135994,2.113223 2.623993,2.808825 2.623993,3.740248 0,0.859518 -1.289916,2.54492 -2.634444,3.442154 -0.493514,0.329344 -1.84404,0.379621 -2.380186,0.08861 z m 63.325052,-0.296984 c -1.003548,-0.729267 -1.932832,-1.824443 -2.178006,-2.566806 -0.426256,-1.29068 -0.186596,-1.729531 2.33478,-4.275377 l 2.307353,-2.329719 h -7.618919 c -8.419877,0 -8.414805,6.47e-4 -9.215145,-1.120617 -0.346086,-0.484842 -0.392422,-0.767764 -0.392422,-2.395971 0,-1.666909 0.04096,-1.903625 0.42205,-2.437541 0.765816,-1.072992 0.816776,-1.079036 9.109287,-1.079036 h 7.519193 l -2.308591,-2.329802 c -1.403731,-1.416635 -2.357128,-2.523035 -2.432415,-2.822805 -0.300041,-1.194619 0.343735,-2.426943 1.958703,-3.749366 1.061723,-0.869387 2.049051,-0.985524 3.098187,-0.364428 0.416137,0.246358 3.223646,2.926607 6.238898,5.956102 4.752615,4.775052 5.508762,5.607618 5.681228,6.25544 0.399058,1.498912 0.364305,1.544872 -5.837311,7.717994 -3.12296,3.108605 -5.851048,5.739441 -6.062427,5.846307 -0.730849,0.369495 -1.880648,0.23614 -2.624443,-0.304375 z M 48.284792,56.769834 c -1.367306,-0.367933 -2.277628,-0.888568 -3.246522,-1.856781 -2.677681,-2.675809 -2.665452,-7.145797 0.02689,-9.836274 1.563259,-1.562162 3.954605,-2.345838 5.99891,-1.965929 3.122827,0.580338 5.257701,2.713729 5.838451,5.834372 0.377575,2.02887 -0.403934,4.432437 -1.940398,5.967831 -0.991503,0.990808 -1.881514,1.490616 -3.321992,1.86556 -1.231441,0.320524 -2.140428,0.31814 -3.355356,-0.0093 z M 47.946873,34.228789 c -0.306756,-0.169821 -0.742232,-0.544086 -0.967735,-0.831705 l -0.40999,-0.522946 -0.08798,-7.788066 -0.08798,-7.788074 -2.023441,2.037409 c -1.112898,1.120573 -2.237256,2.150567 -2.498579,2.288875 -0.608502,0.322059 -1.78246,0.322678 -2.392825,0.0013 -0.55525,-0.292394 -2.193817,-1.950221 -2.478413,-2.507551 -0.271872,-0.532426 -0.245155,-1.562798 0.05522,-2.130232 0.138241,-0.261141 2.810511,-3.020749 5.938371,-6.132466 4.878348,-4.8531723 5.778884,-5.6744077 6.333086,-5.775384 1.423983,-0.2594549 1.442867,-0.2448529 7.592227,5.868097 3.176236,3.157429 5.888096,5.954439 6.02635,6.21558 0.293621,0.554589 0.325965,1.504124 0.07382,2.16686 -0.275539,0.724216 -2.116283,2.462125 -2.871688,2.711255 -1.312257,0.432783 -1.74098,0.200592 -4.296739,-2.327084 l -2.331361,-2.305734 -3.52e-4,7.552251 c -3.51e-4,8.320227 0.0013,8.305234 -1.111816,9.122214 -0.698233,0.512372 -3.625067,0.607805 -4.460278,0.145433 z"
       id="path310" /></g></svg>
