<?xml version="1.0" encoding="UTF-8" standalone="no"?>
<!-- Created with Inkscape (http://www.inkscape.org/) -->

<svg
   width="24mm"
   height="24mm"
   viewBox="0 0 24 24"
   version="1.1"
   id="svg5"
   inkscape:version="1.2.1 (9c6d41e410, 2022-07-14)"
   sodipodi:docname="move.svg"
   xml:space="preserve"
   xmlns:inkscape="http://www.inkscape.org/namespaces/inkscape"
   xmlns:sodipodi="http://sodipodi.sourceforge.net/DTD/sodipodi-0.dtd"
   xmlns="http://www.w3.org/2000/svg"
   xmlns:svg="http://www.w3.org/2000/svg"><sodipodi:namedview
     id="namedview7"
     pagecolor="#ffffff"
     bordercolor="#666666"
     borderopacity="1.0"
     inkscape:showpageshadow="2"
     inkscape:pageopacity="0.0"
     inkscape:pagecheckerboard="0"
     inkscape:deskcolor="#d1d1d1"
     inkscape:document-units="mm"
     showgrid="false"
     inkscape:zoom="2.3786088"
     inkscape:cx="51.921106"
     inkscape:cy="45.614899"
     inkscape:window-width="1920"
     inkscape:window-height="1010"
     inkscape:window-x="1913"
     inkscape:window-y="-6"
     inkscape:window-maximized="1"
     inkscape:current-layer="layer1" /><defs
     id="defs2" /><g
     inkscape:label="Layer 1"
     inkscape:groupmode="layer"
     id="layer1"><path
       style="fill:#000000;stroke-width:0.17589"
       d="m 11.741992,22.957569 c -0.129637,-0.05063 -2.818276,-2.718733 -2.906031,-2.883829 -0.07365,-0.138558 -0.0803,-0.390402 -0.01375,-0.520726 0.06957,-0.136234 0.470107,-0.541482 0.605835,-0.612955 0.138526,-0.07295 0.432992,-0.08 0.564099,-0.01352 0.05167,0.0262 0.331042,0.282183 0.620824,0.568846 l 0.526878,0.521204 v -1.844687 c 0,-1.787622 0.0028,-1.850466 0.09055,-2.031614 0.129814,-0.267975 0.32248,-0.355975 0.779363,-0.355975 0.42886,0 0.610823,0.07898 0.753018,0.326827 0.09529,0.166094 0.09607,0.182366 0.09677,2.013552 l 6.36e-4,1.846104 0.569888,-0.562551 c 0.503359,-0.496881 0.591238,-0.566074 0.752768,-0.592722 0.25523,-0.0421 0.490802,0.08134 0.778475,0.407944 0.241612,0.274307 0.307066,0.465418 0.245434,0.716598 -0.03754,0.15298 -2.779548,2.918387 -2.979588,3.005014 -0.158562,0.06866 -0.330113,0.07308 -0.485247,0.01249 z M 3.935598,15.176267 C 3.888288,15.150587 3.224987,14.508084 2.461599,13.748477 0.946214,12.2406 0.937712,12.229371 1.033983,11.862357 1.075853,11.702734 1.261901,11.499842 2.508747,10.254068 4.045605,8.718536 4.034538,8.727024 4.408278,8.79709 c 0.180317,0.0338 0.623665,0.426368 0.726793,0.643543 0.08065,0.16984 0.08948,0.378369 0.02167,0.511922 -0.02621,0.05163 -0.292062,0.340481 -0.590772,0.641882 l -0.54311,0.547997 h 1.83979 c 1.759008,0 1.847241,0.0038 2.009538,0.08654 0.249487,0.127188 0.342948,0.338559 0.342948,0.775603 0,0.403253 -0.06438,0.57749 -0.270451,0.732002 l -0.138148,0.103579 -1.903941,0.02148 -1.903942,0.02148 0.521322,0.515764 c 0.522132,0.516566 0.641421,0.686602 0.641421,0.914283 0,0.210104 -0.315313,0.622091 -0.643976,0.841415 -0.120636,0.08051 -0.450765,0.0928 -0.581823,0.02166 z m 15.479456,-0.0726 c -0.245312,-0.178265 -0.47247,-0.445975 -0.532402,-0.627441 -0.104196,-0.315499 -0.04561,-0.422774 0.570724,-1.045092 l 0.56402,-0.569486 h -1.862403 c -2.058192,0 -2.056952,1.58e-4 -2.25259,-0.273929 -0.0846,-0.118517 -0.09593,-0.187675 -0.09593,-0.585681 0,-0.407467 0.01001,-0.465331 0.103168,-0.595844 0.187199,-0.262286 0.199656,-0.263764 2.226714,-0.263764 h 1.838025 l -0.564322,-0.569507 c -0.343134,-0.346288 -0.576187,-0.616741 -0.59459,-0.690018 -0.07334,-0.292018 0.08402,-0.593253 0.478794,-0.916512 0.259532,-0.212516 0.500879,-0.240905 0.757334,-0.08908 0.101723,0.06022 0.788003,0.715392 1.525065,1.455935 1.161751,1.167235 1.346587,1.370751 1.388745,1.529107 0.09755,0.366401 0.08905,0.377635 -1.426898,1.88662 -0.763391,0.759881 -1.430257,1.402974 -1.481928,1.429097 -0.178652,0.09032 -0.459714,0.05772 -0.64153,-0.0744 z m -7.834323,-1.448824 c -0.33423,-0.08994 -0.556754,-0.217206 -0.793594,-0.45388 -0.654545,-0.654086 -0.651555,-1.74675 0.0066,-2.404422 0.38213,-0.381861 0.966681,-0.573426 1.466399,-0.48056 0.763358,0.141861 1.285216,0.663356 1.427177,1.426179 0.0923,0.495946 -0.09874,1.083485 -0.47432,1.458803 -0.242367,0.242197 -0.459925,0.364373 -0.812042,0.456026 -0.301019,0.07835 -0.523215,0.07777 -0.820197,-0.0023 z m -0.0826,-5.510031 c -0.07499,-0.04151 -0.181437,-0.132999 -0.23656,-0.203306 l -0.10022,-0.127831 -0.02151,-1.903749 -0.02151,-1.90375 -0.494619,0.498033 C 10.35167,4.778127 10.076827,5.029903 10.012948,5.063711 9.864203,5.142441 9.577236,5.142591 9.428035,5.064029 9.292308,4.992559 8.891769,4.587309 8.822201,4.451072 8.755741,4.320924 8.762271,4.069055 8.835701,3.930349 c 0.03379,-0.06383 0.687014,-0.738405 1.451602,-1.499046 1.192485,-1.186331 1.412616,-1.387077 1.548088,-1.41176 0.348084,-0.06342 0.3527,-0.05985 1.855877,1.434423 0.776413,0.771816 1.439312,1.455529 1.473107,1.519363 0.07177,0.135566 0.07968,0.367675 0.01805,0.529677 -0.06735,0.17703 -0.517313,0.601852 -0.701968,0.662751 -0.320774,0.105791 -0.425573,0.04903 -1.050314,-0.568843 l -0.569888,-0.563623 -8.6e-5,1.846105 c -8.6e-5,2.033832 3.18e-4,2.030167 -0.271777,2.229873 -0.17068,0.125247 -0.886127,0.148575 -1.09029,0.03555 z"
       id="path310" /></g></svg>
