<?xml version="1.0" encoding="UTF-8" standalone="no"?>
<svg
   xmlns:dc="http://purl.org/dc/elements/1.1/"
   xmlns:cc="http://creativecommons.org/ns#"
   xmlns:rdf="http://www.w3.org/1999/02/22-rdf-syntax-ns#"
   xmlns:svg="http://www.w3.org/2000/svg"
   xmlns="http://www.w3.org/2000/svg"
   xmlns:sodipodi="http://sodipodi.sourceforge.net/DTD/sodipodi-0.dtd"
   xmlns:inkscape="http://www.inkscape.org/namespaces/inkscape"
   inkscape:version="1.0 (4035a4fb49, 2020-05-01)"
   sodipodi:docname="octogone_black_24dp.svg"
   id="svg859"
   version="1.1"
   fill="#000000"
   width="24px"
   viewBox="0 0 24 24"
   height="24px">
  <metadata
     id="metadata865">
    <rdf:RDF>
      <cc:Work
         rdf:about="">
        <dc:format>image/svg+xml</dc:format>
        <dc:type
           rdf:resource="http://purl.org/dc/dcmitype/StillImage" />
        <dc:title></dc:title>
      </cc:Work>
    </rdf:RDF>
  </metadata>
  <defs
     id="defs863" />
  <sodipodi:namedview
     inkscape:current-layer="svg859"
     inkscape:window-maximized="1"
     inkscape:window-y="-8"
     inkscape:window-x="-8"
     inkscape:cy="11.966187"
     inkscape:cx="8.2602433"
     inkscape:zoom="21.655145"
     showgrid="false"
     id="namedview861"
     inkscape:window-height="992"
     inkscape:window-width="1920"
     inkscape:pageshadow="2"
     inkscape:pageopacity="0"
     guidetolerance="10"
     gridtolerance="10"
     objecttolerance="10"
     borderopacity="1"
     bordercolor="#666666"
     pagecolor="#ffffff" />
  <path
     id="path855"
     fill="none"
     d="M0 0h24v24H0z" />
  <path
     sodipodi:nodetypes="scsscsscsscssccccccccc"
     id="path857"
     d="M 19,3 12,1 5,3 C 3.9423237,3.3021932 3.3021932,3.9423237 3,5 l -2,7 2,7 c 0.3021932,1.057676 0.9423237,1.697807 2,2 l 7,2 7,-2 c 1.057676,-0.302193 1.697807,-0.942324 2,-2 L 23,12 21,5 C 20.697807,3.9423237 20.057676,3.3021932 19,3 Z m 0,16 -7,2 -7,-2 -2,-7 2,-7 7,-2 7,2 2,7 z" />
</svg>
