<?xml version="1.0" encoding="UTF-8" standalone="no"?>
<!-- Created with Inkscape (http://www.inkscape.org/) -->

<svg
   width="100mm"
   height="100mm"
   viewBox="0 0 100 100"
   version="1.1"
   id="svg2482"
   inkscape:version="1.2.1 (9c6d41e410, 2022-07-14)"
   sodipodi:docname="round_wheel_icon.svg"
   xmlns:inkscape="http://www.inkscape.org/namespaces/inkscape"
   xmlns:sodipodi="http://sodipodi.sourceforge.net/DTD/sodipodi-0.dtd"
   xmlns="http://www.w3.org/2000/svg"
   xmlns:svg="http://www.w3.org/2000/svg">
  <sodipodi:namedview
     id="namedview2484"
     pagecolor="#ffffff"
     bordercolor="#666666"
     borderopacity="1.0"
     inkscape:showpageshadow="2"
     inkscape:pageopacity="0.0"
     inkscape:pagecheckerboard="0"
     inkscape:deskcolor="#d1d1d1"
     inkscape:document-units="mm"
     showgrid="false"
     inkscape:zoom="1.1893044"
     inkscape:cx="161.85932"
     inkscape:cy="166.06346"
     inkscape:window-width="1920"
     inkscape:window-height="1010"
     inkscape:window-x="1913"
     inkscape:window-y="-6"
     inkscape:window-maximized="1"
     inkscape:current-layer="layer1" />
  <defs
     id="defs2479" />
  <g
     inkscape:label="Layer 1"
     inkscape:groupmode="layer"
     id="layer1">
    <path
       style="fill:#000000;stroke-width:1"
       d="M 47.151217,89.957174 C 46.847464,89.922117 45.924364,89.816969 45.099884,89.723573 40.41481,89.192784 35.080533,87.485456 30.819443,85.152846 23.587519,81.193934 17.719501,75.086354 14.093992,67.744574 12.686632,64.894631 11.858394,62.664193 11.127843,59.756761 10.203617,56.078545 9.9999999,54.312139 9.9999999,49.972594 c 0,-4.33952 0.2036171,-6.105926 1.1278431,-9.784155 C 14.777825,25.662306 26.551257,14.149432 41.056799,10.921841 44.485895,10.158846 46.025411,10 49.991526,10 c 3.966127,0 5.505643,0.158846 8.934739,0.921841 11.56127,2.572471 21.661505,10.543472 26.962807,21.278785 1.923383,3.894906 3.147081,7.77237 3.805418,12.05802 0.407345,2.651733 0.407345,8.776176 0,11.427909 -0.658337,4.28565 -1.882035,8.163113 -3.805418,12.058019 -5.859917,11.866537 -17.115365,19.980903 -30.405716,21.920351 -1.559655,0.227603 -7.183687,0.424863 -8.332139,0.292249 z M 52.308789,87.410885 53.127,87.308921 52.111551,85.999225 c -0.558502,-0.720333 -1.015456,-1.439087 -1.015456,-1.597241 0,-0.512605 0.346419,-1.059689 0.785184,-1.24 0.806403,-0.331381 1.170618,-0.07653 2.704761,1.89233 1.198518,1.538175 1.523825,1.863235 1.864644,1.863235 0.536019,0 3.882752,-0.81947 5.278633,-1.292513 l 1.086622,-0.368228 -1.126783,-0.828704 c -1.793602,-1.319139 -2.094648,-1.894847 -1.4295,-2.733748 0.246339,-0.310691 0.46884,-0.412481 0.901629,-0.412481 0.481221,0 0.881399,0.232416 2.462716,1.430273 l 1.88813,1.430287 1.510157,-0.743726 c 1.403443,-0.691165 4.499008,-2.571459 4.396022,-2.670213 -0.02505,-0.02408 -0.684632,-0.301791 -1.465713,-0.617235 -1.560693,-0.630295 -1.972441,-0.979266 -1.972441,-1.67169 0,-0.574239 0.627534,-1.227914 1.17882,-1.227914 0.222303,0 1.365554,0.39078 2.540556,0.868389 l 2.136372,0.86839 0.740861,-0.622209 c 0.698653,-0.586769 3.004953,-2.895087 3.792874,-3.796202 l 0.36,-0.411704 -1.616064,-0.196409 c -1.335807,-0.162338 -1.681182,-0.260994 -1.991544,-0.568907 -0.518757,-0.514655 -0.446887,-1.386378 0.150631,-1.827091 0.422811,-0.311852 0.456948,-0.312531 2.60362,-0.05246 1.196351,0.144946 2.301046,0.262525 2.454879,0.261303 0.176889,-0.0011 0.600148,-0.495065 1.151612,-1.343137 1.019029,-1.567122 2.50351,-4.278663 2.39913,-4.382218 -0.03972,-0.03937 -0.787218,0.01111 -1.661126,0.113319 -1.422833,0.16561 -1.631367,0.157352 -1.994956,-0.079 -0.501524,-0.32601 -0.66395,-0.906608 -0.418249,-1.495081 0.256812,-0.615099 0.594553,-0.731591 3.020473,-1.041776 1.163288,-0.148748 2.171726,-0.320592 2.240966,-0.38188 0.343509,-0.304063 1.985939,-6.178289 1.783577,-6.379043 -0.04855,-0.04814 -0.71104,0.170326 -1.472243,0.48551 -0.761203,0.315173 -1.546994,0.572006 -1.746212,0.570735 -0.506837,-0.0025 -1.136841,-0.675315 -1.136841,-1.212745 0,-0.772513 0.383568,-1.062046 2.654676,-2.003885 l 2.194401,-0.910015 0.09923,-1.264454 c 0.126357,-1.609993 0.126399,-3.694423 9.6e-5,-4.737448 l -0.0983,-0.811693 -1.330798,1.007386 c -1.512588,1.145 -1.90137,1.227694 -2.584684,0.549787 -0.86405,-0.857207 -0.633098,-1.26443 1.770116,-3.121098 l 1.836887,-1.419128 -0.204496,-1.062527 c -0.343629,-1.785392 -1.169515,-4.781751 -1.459887,-5.296505 -0.09131,-0.161869 -0.353885,0.07789 -0.986173,0.900386 -0.473946,0.616545 -1.000207,1.248988 -1.169462,1.405426 -0.715799,0.661588 -1.983976,0.03518 -1.983976,-0.979994 0,-0.383226 0.322791,-0.916126 1.420154,-2.34456 0.781088,-1.016732 1.420156,-1.970655 1.420156,-2.119809 0,-0.341861 -1.434576,-3.037157 -2.482797,-4.664704 -0.904265,-1.404031 -0.770586,-1.458123 -1.6145,0.653281 -0.548924,1.373354 -0.903407,1.756345 -1.6256,1.756345 -0.552789,0 -1.220077,-0.629245 -1.220077,-1.150517 0,-0.21011 0.39054,-1.318966 0.867874,-2.464138 0.477327,-1.14516 0.867866,-2.210329 0.867866,-2.367039 0,-0.29836 -4.378489,-4.820018 -4.667399,-4.820018 -0.09341,0 -0.248623,0.702953 -0.354297,1.604611 -0.222448,1.898021 -0.478711,2.362805 -1.343006,2.435784 -0.442927,0.0374 -0.66433,-0.04136 -0.970541,-0.34512 -0.469312,-0.465599 -0.469466,-0.471696 -0.08712,-3.380744 0.163989,-1.247679 0.285682,-2.276162 0.270427,-2.285531 -0.01526,-0.0099 -0.577455,-0.381584 -1.249331,-0.827173 -1.492711,-0.989968 -4.519111,-2.595258 -4.649292,-2.466101 -0.05218,0.05173 -0.01283,0.676204 0.08736,1.387675 0.282011,2.002192 0.249034,2.392492 -0.23397,2.76941 -0.5434,0.424072 -1.043808,0.410458 -1.574995,-0.04284 -0.399135,-0.340602 -0.455535,-0.546133 -0.775904,-2.827441 -0.190016,-1.353086 -0.408581,-2.519256 -0.4857,-2.591481 -0.380616,-0.356513 -6.246188,-1.90612 -6.449919,-1.704008 -0.04712,0.04678 0.199415,0.764563 0.547843,1.595143 0.736847,1.756459 0.77455,2.168841 0.246203,2.693 -0.460009,0.456379 -1.169844,0.504052 -1.641893,0.110234 -0.180635,-0.150673 -0.751989,-1.285019 -1.269679,-2.520761 -0.517692,-1.235742 -0.969474,-2.27479 -1.003952,-2.308996 -0.142955,-0.141823 -4.395259,-0.224676 -5.598429,-0.109123 l -1.301437,0.125034 1.104193,1.455654 c 0.746591,0.984229 1.104191,1.595723 1.104191,1.888183 0,0.480301 -0.443247,1.037468 -0.95306,1.197992 -0.741206,0.233392 -1.089535,-0.105913 -4.05023,-3.945047 -0.172494,-0.223678 -0.336913,-0.213926 -1.735741,0.102956 -1.87833,0.425504 -4.937789,1.384599 -4.937789,1.547914 0,0.06517 0.574616,0.537207 1.276926,1.04885 0.702309,0.511642 1.341377,1.0489 1.420154,1.193907 0.433516,0.798053 -0.163912,1.849717 -1.050781,1.849717 -0.437971,0 -0.913371,-0.280731 -2.517655,-1.486748 l -1.977726,-1.486748 -1.297422,0.644775 c -1.32394,0.657958 -4.529016,2.646387 -4.53108,2.811084 -6.57e-4,0.04999 0.674142,0.356143 1.499484,0.680215 1.576087,0.618877 1.970867,0.958837 1.970867,1.697218 0,0.547033 -0.633833,1.210423 -1.156503,1.210423 -0.210024,0 -1.330388,-0.390595 -2.489695,-0.86797 -1.879145,-0.773809 -2.14855,-0.846357 -2.483127,-0.66871 -0.413168,0.219368 -4.442938,4.303004 -4.442938,4.502315 0,0.06839 0.656821,0.206111 1.459603,0.306074 1.843084,0.229503 2.248577,0.486411 2.248577,1.424682 0,0.544824 -0.07921,0.729346 -0.422169,0.983376 -0.414196,0.306791 -0.460719,0.307853 -2.46354,0.05605 -2.956338,-0.371721 -2.670564,-0.453711 -3.607647,1.035087 -1.044289,1.659136 -2.48155,4.337075 -2.381169,4.436668 0.04266,0.04234 0.530196,0.0037 1.083442,-0.08505 1.712344,-0.275646 2.27794,-0.222702 2.651295,0.248193 0.415431,0.523949 0.41753,1.154134 0.0053,1.593106 -0.176954,0.188435 -0.336723,0.34728 -0.355038,0.352983 -0.01832,0.0062 -1.056683,0.164203 -2.307483,0.352229 l -2.274181,0.341861 -0.37645,1.095832 c -0.417557,1.215473 -1.308088,4.695009 -1.308088,5.111021 0,0.227429 0.180496,0.188336 1.24665,-0.27003 1.482564,-0.637393 1.950187,-0.66613 2.468703,-0.151723 0.438277,0.434813 0.505805,1.100277 0.161182,1.588392 -0.126225,0.178793 -1.128099,0.692831 -2.26767,1.163503 l -2.041538,0.843195 -0.09926,1.164887 c -0.124911,1.465998 -0.109059,3.960108 0.0308,4.845459 l 0.106645,0.675154 1.157466,-0.870835 c 1.267514,-0.953639 1.8547,-1.091722 2.388907,-0.561735 0.429531,0.426134 0.543661,0.994598 0.293352,1.461159 -0.115741,0.215728 -0.955916,0.966416 -1.867051,1.668197 -1.893765,1.458628 -1.793499,1.137987 -1.171779,3.74722 0.491245,2.061642 1.00629,3.749515 1.175873,3.853504 0.0722,0.04431 0.471059,-0.360909 0.886379,-0.900375 0.917108,-1.191241 1.122049,-1.360838 1.652177,-1.367232 0.672572,-0.0087 1.244192,0.548231 1.244192,1.210954 0,0.465488 -0.216641,0.848899 -1.209798,2.141153 -0.665388,0.865773 -1.272491,1.656012 -1.349118,1.756111 -0.160301,0.209382 1.282083,3.069721 2.468038,4.894268 l 0.755679,1.162578 0.543815,-1.319126 c 0.601011,-1.457877 0.964008,-1.867049 1.656346,-1.867049 0.575552,0 1.237706,0.621567 1.237706,1.161848 0,0.216332 -0.355039,1.250235 -0.788976,2.297529 -0.433935,1.047307 -0.788974,1.996392 -0.788974,2.109082 0,0.112702 1.036105,1.248197 2.302455,2.523378 2.6018,2.619947 2.430256,2.589272 2.658441,0.475363 0.144246,-1.336285 0.507397,-1.835695 1.334849,-1.835695 0.428799,0 0.695218,0.108753 0.965471,0.394164 l 0.373249,0.394162 -0.283527,2.360164 c -0.155939,1.298092 -0.222764,2.414366 -0.1485,2.480605 0.832371,0.742454 5.509277,3.415371 5.679881,3.246107 0.04676,-0.04641 0.0076,-0.578771 -0.08688,-1.18313 -0.256757,-1.64178 -0.223627,-2.019254 0.215471,-2.454881 0.466813,-0.463118 1.166569,-0.502261 1.675141,-0.09369 0.315449,0.253427 0.404215,0.596979 0.694597,2.688359 l 0.332924,2.397801 1.33477,0.449823 c 1.554735,0.523949 5.065244,1.404672 5.172951,1.29782 0.04062,-0.04024 -0.186127,-0.69109 -0.503819,-1.446272 -0.679037,-1.614116 -0.705027,-1.960704 -0.185638,-2.475989 0.460038,-0.456402 1.1689,-0.503952 1.644332,-0.110234 0.181976,0.150687 0.740156,1.224978 1.240391,2.387333 l 0.90953,2.113391 1.025667,0.09036 c 1.437449,0.126676 4.027507,0.132664 4.999773,0.01111 z M 45.830099,76.348512 C 34.692104,74.556133 26.051723,66.350728 23.605404,55.242645 c -0.306598,-1.392193 -0.350427,-2.051323 -0.350427,-5.270051 0,-4.047949 0.170412,-5.248362 1.181503,-8.322687 2.607786,-7.929253 9.173503,-14.443019 17.165982,-17.03018 3.098844,-1.00309 4.308824,-1.172145 8.389064,-1.172145 4.080252,0 5.290232,0.169055 8.389077,1.172145 7.992476,2.587161 14.558192,9.100927 17.165981,17.03018 1.011091,3.074325 1.181503,4.274738 1.181503,8.322687 0,3.218728 -0.04384,3.877858 -0.350427,5.270051 -1.170112,5.313157 -3.652563,9.878724 -7.38456,13.581196 -3.711592,3.682228 -8.355601,6.175363 -13.608589,7.305771 -2.022807,0.435294 -7.438628,0.559378 -9.554412,0.2189 z m 6.26108,-2.428426 c 5.847219,-0.550095 10.921576,-2.904321 15.016458,-6.9668 6.509582,-6.458082 8.755463,-15.775502 5.904282,-24.49492 -1.950507,-5.964992 -6.526784,-11.208441 -12.211432,-13.991727 -6.937403,-3.396644 -14.680507,-3.396644 -21.617909,0 -4.619402,2.261718 -8.588754,6.199668 -10.868515,10.782529 -3.423738,6.882514 -3.423738,14.564351 0,21.446877 3.651268,7.339915 11.096575,12.425432 19.350229,13.217202 1.91211,0.183422 2.539567,0.184398 4.426887,0.0074 z m -2.417338,-3.650688 c -0.04337,-0.04308 -0.816488,-0.15871 -1.718105,-0.257143 C 42.073574,69.370122 36.798179,66.343174 33.492734,61.71359 33.154627,61.240042 32.754862,60.762456 32.604374,60.652297 32.453888,60.542186 32.262387,60.225113 32.17882,59.947825 32.09526,59.670537 31.729542,58.774434 31.366125,57.95647 26.382945,46.740683 32.868684,33.58198 44.911646,30.474412 c 9.914924,-2.558449 20.257555,2.700666 24.002374,12.204915 0.972366,2.467855 1.325172,4.409561 1.325172,7.293267 0,1.912637 -0.07444,2.774571 -0.351452,4.070218 -1.8322,8.569275 -8.950703,14.984659 -17.701074,15.952655 -0.819763,0.09073 -1.702772,0.207013 -1.962249,0.2585 -0.259472,0.05148 -0.50723,0.05852 -0.550576,0.01543 z M 48.72917,61.887112 v -5.618713 l -0.411903,-0.102583 c -0.734664,-0.182929 -1.746755,-0.719495 -2.394173,-1.269269 l -0.632883,-0.537441 -4.86846,2.787568 c -2.677655,1.533175 -4.868458,2.866745 -4.868458,2.963511 0,0.356945 1.920722,2.448461 3.150305,3.430431 1.649921,1.31767 3.140699,2.183431 4.897236,2.844032 1.462002,0.549835 3.710675,1.090696 4.615501,1.110126 l 0.512835,0.01111 z m 4.812746,5.322613 c 2.888968,-0.593954 5.345787,-1.758951 7.737544,-3.669081 1.075316,-0.858762 2.866018,-2.754228 3.257263,-3.447812 0.08013,-0.142044 -1.282955,-0.998004 -4.651761,-2.921121 -2.620801,-1.496105 -4.878056,-2.786889 -5.016121,-2.868374 -0.190743,-0.112579 -0.464682,0.02445 -1.140769,0.570809 -0.489368,0.395434 -1.246253,0.844591 -1.68197,0.998116 l -0.792215,0.279139 v 5.677212 5.6772 l 0.433934,-0.0012 c 0.23867,-0.0011 1.073009,-0.133442 1.854095,-0.294027 z m -14.510565,-12.191091 4.857485,-2.781285 0.0085,-1.940435 0.0085,-1.940423 -4.886368,-2.809246 c -2.687501,-1.545087 -4.962582,-2.839699 -5.055732,-2.876928 -0.217062,-0.08678 -1.099905,2.454596 -1.421908,4.093079 -0.326578,1.661765 -0.329547,4.656359 -0.0064,6.351256 0.301303,1.579786 1.348953,4.68528 1.580603,4.68528 0.03173,0 2.243566,-1.251591 4.91518,-2.781298 z m 27.529759,1.254962 c 0.82033,-2.228006 1.117493,-3.903584 1.117493,-6.301002 0,-1.504857 -0.08827,-2.519045 -0.306575,-3.522284 -0.355335,-1.632991 -1.245186,-4.148493 -1.467519,-4.148493 -0.08374,0 -2.461023,1.320867 -5.282838,2.935255 l -5.130572,2.935243 0.117097,0.469647 c 0.06441,0.258291 0.125362,1.091981 0.135447,1.85262 l 0.01837,1.382983 5.038089,2.882903 c 2.77095,1.585601 5.087276,2.882916 5.147393,2.882916 0.06011,0 0.336256,-0.616409 0.613643,-1.369788 z M 50.826699,51.692167 c 1.272822,-0.993289 0.577849,-2.971942 -1.043856,-2.971942 -0.485432,0 -0.722694,0.109987 -1.148349,0.532258 -0.746442,0.740541 -0.746442,1.482428 0,2.222969 0.647614,0.642492 1.534279,0.730136 2.192205,0.216715 z m -4.898673,-5.876719 c 0.566482,-0.472895 1.899713,-1.16543 2.243615,-1.16543 0.213251,0 0.241937,-0.723901 0.241937,-6.105309 0,-5.106872 -0.03584,-6.105322 -0.219263,-6.105322 -0.611341,0 -2.959246,0.541097 -4.169603,0.960911 -3.166063,1.098165 -6.193644,3.305211 -8.261598,6.022529 l -0.676229,0.888573 0.376824,0.248217 c 0.733626,0.483251 9.717123,5.629342 9.85009,5.642501 0.07426,0.0074 0.350658,-0.166647 0.614227,-0.38667 z m 13.452306,-2.782385 c 3.125426,-1.794317 5.049441,-2.989409 5.049441,-3.136453 0,-0.409877 -1.827477,-2.435611 -3.150313,-3.492053 -1.650583,-1.318201 -3.141344,-2.183789 -4.897229,-2.843513 -1.518786,-0.570648 -3.88329,-1.116224 -4.852202,-1.119595 l -0.591732,-0.0025 v 6.014456 6.014468 l 0.754044,0.248465 c 0.414724,0.136662 1.107051,0.490793 1.538503,0.786942 0.431446,0.296162 0.855468,0.513668 0.942255,0.483351 0.08678,-0.03025 2.430046,-1.359628 5.207233,-2.954019 z"
       id="path572" />
    <path
       style="fill:none;stroke:#000000;stroke-width:2.5;stroke-linecap:round;stroke-linejoin:miter;stroke-dasharray:none;stroke-opacity:1"
       d="M 76.25,88.25 H 92"
       id="path2616"
       sodipodi:nodetypes="cc" />
    <path
       style="fill:none;stroke:#000000;stroke-width:2.5;stroke-linecap:round;stroke-linejoin:miter;stroke-dasharray:none;stroke-opacity:1"
       d="M 83.305084,82.5 H 94"
       id="path2616-0"
       sodipodi:nodetypes="cc" />
  </g>
</svg>
